# xmcd CD database file
#
# Track frame offsets:
#	150
#	50887
#	76002
#	95522
#	139325
#	158925
#	213062
#	245672
#	269032
#	301689
#
# Disc length: 4342 seconds
#
# Revision: 0
# Processed by: cddbd v1.5.2PL0 Copyright (c) Steve Scherf et al.
# Submitted via: CDex 1.70beta2
#
DISCID=8910f40a
DTITLE=Howard Brofsky - 73 down: drbebop
DYEAR=1999
DGENRE=Jazz
TTITLE0=Dark Eyes
TTITLE1=Polka Dots and Moonbeams
TTITLE2=Blues for Alex
TTITLE3=I'm Old Fashioned
TTITLE4=Robin in the Islands
TTITLE5=Body and Soul
TTITLE6=The Open Door
TTITLE7=If I Had You
TTITLE8=Two O'Clock in the Morning
TTITLE9=Klack
EXTD=YEAR: 1999
EXTT0=
EXTT1=
EXTT2=
EXTT3=
EXTT4=
EXTT5=
EXTT6=
EXTT7=
EXTT8=
EXTT9=
PLAYORDER=
